<svg xmlns="http://www.w3.org/2000/svg" xmlns:xlink="http://www.w3.org/1999/xlink" width="500" zoomAndPan="magnify" viewBox="0 0 375 374.999991" height="500" preserveAspectRatio="xMidYMid meet" version="1.0"><defs><g/><clipPath id="f91bfbf655"><path d="M 18 354 L 32.976562 354 L 32.976562 361 L 18 361 Z M 18 354 " clip-rule="nonzero"/></clipPath><clipPath id="1583f227be"><path d="M 18 360 L 32.976562 360 L 32.976562 367 L 18 367 Z M 18 360 " clip-rule="nonzero"/></clipPath><clipPath id="47f1e4a77b"><path d="M 17.226562 357 L 25 357 L 25 365 L 17.226562 365 Z M 17.226562 357 " clip-rule="nonzero"/></clipPath><clipPath id="d9f5d7cc18"><path d="M 72.144531 32.195312 L 303.144531 32.195312 L 303.144531 311.945312 L 72.144531 311.945312 Z M 72.144531 32.195312 " clip-rule="nonzero"/></clipPath></defs><g clip-path="url(#f91bfbf655)"><path fill="#56aeff" d="M 18.632812 356.988281 C 18.632812 356.988281 20.996094 352.226562 25.558594 356.988281 C 29.8125 361.421875 33.113281 358.578125 33.113281 358.578125 C 33.113281 358.578125 29.546875 363.207031 24.507812 357.925781 C 21.015625 354.261719 18.632812 356.988281 18.632812 356.988281 " fill-opacity="1" fill-rule="nonzero"/></g><g clip-path="url(#1583f227be)"><path fill="#145da0" d="M 18.632812 364.328125 C 18.632812 364.328125 20.996094 369.089844 25.558594 364.328125 C 29.8125 359.894531 33.113281 362.738281 33.113281 362.738281 C 33.113281 362.738281 29.546875 358.109375 24.507812 363.390625 C 21.015625 367.054688 18.632812 364.328125 18.632812 364.328125 " fill-opacity="1" fill-rule="nonzero"/></g><g clip-path="url(#47f1e4a77b)"><path fill="#56aeff" d="M 20.816406 362.769531 C 19.652344 362.769531 18.707031 361.824219 18.707031 360.660156 C 18.707031 359.492188 19.652344 358.546875 20.816406 358.546875 C 21.984375 358.546875 22.929688 359.492188 22.929688 360.660156 C 22.929688 361.824219 21.984375 362.769531 20.816406 362.769531 Z M 20.816406 357.070312 C 18.835938 357.070312 17.230469 358.675781 17.230469 360.660156 C 17.230469 362.640625 18.835938 364.246094 20.816406 364.246094 C 22.800781 364.246094 24.40625 362.640625 24.40625 360.660156 C 24.40625 358.675781 22.800781 357.070312 20.816406 357.070312 " fill-opacity="1" fill-rule="nonzero"/></g><path fill="#051d40" d="M 20.816406 358.546875 C 19.652344 358.546875 18.707031 359.492188 18.707031 360.660156 C 18.707031 361.152344 18.878906 361.605469 19.164062 361.964844 C 19.140625 361.917969 19.125 361.867188 19.125 361.808594 C 19.125 361.609375 19.285156 361.449219 19.484375 361.449219 C 19.683594 361.449219 19.84375 361.609375 19.84375 361.808594 C 19.84375 362.007812 19.683594 362.167969 19.484375 362.167969 C 19.410156 362.167969 19.339844 362.144531 19.28125 362.105469 C 19.667969 362.511719 20.210938 362.769531 20.816406 362.769531 C 21.984375 362.769531 22.929688 361.824219 22.929688 360.660156 C 22.929688 359.492188 21.984375 358.546875 20.816406 358.546875 " fill-opacity="1" fill-rule="nonzero"/><g clip-path="url(#d9f5d7cc18)"><path fill="#f9f9f9" d="M 285.375 311.804688 L 282.128906 311.804688 C 281.867188 306.0625 281.664062 300.308594 281.519531 294.542969 C 281.371094 288.496094 281.25 282.300781 281.152344 275.960938 C 281.066406 270.542969 281.335938 265.769531 281.960938 261.636719 C 282.773438 256.300781 283.785156 250.9375 285 245.546875 C 286.324219 239.664062 287.035156 231.941406 287.140625 222.375 C 287.179688 218.800781 286.898438 215.15625 286.292969 211.433594 C 285.714844 207.882812 285.328125 204.394531 285.132812 200.96875 C 284.824219 195.503906 284.617188 190.144531 284.519531 184.894531 C 284.457031 181.289062 285.144531 175.761719 286.582031 168.3125 C 287.195312 165.179688 288.089844 162.261719 289.273438 159.566406 C 293.488281 149.992188 291.703125 139.351562 291.953125 129.339844 C 292.175781 120.09375 292.039062 112.789062 291.539062 107.425781 C 290.933594 100.910156 290.292969 94.289062 289.613281 87.566406 C 288.691406 78.421875 287.050781 69.953125 285.617188 61 C 285.085938 57.640625 285.019531 53.988281 283.867188 50.785156 C 282.507812 46.980469 281.066406 42.75 279.539062 38.097656 C 278.863281 36.050781 276.523438 35.070312 274.757812 36.617188 C 269.070312 41.597656 266.273438 48.945312 262.441406 55.269531 C 255.558594 66.640625 248.648438 78.140625 241.714844 89.773438 C 238.859375 94.5625 236.21875 99.464844 233.445312 104.25 C 231.824219 107.050781 229.648438 109.523438 227.652344 112.0625 C 227.125 112.726562 226.4375 113.089844 225.59375 113.152344 C 223.402344 113.316406 220.90625 113.125 218.847656 112.375 C 213.519531 110.4375 208.210938 109.011719 202.925781 108.109375 C 199.847656 107.582031 197.816406 107.335938 196.839844 107.367188 C 191.882812 107.539062 186.707031 107.871094 181.316406 108.367188 C 175.613281 108.898438 170.351562 110.222656 164.703125 111.070312 C 163.027344 111.324219 161.355469 111.773438 159.683594 112.417969 C 158.113281 113.023438 156.375 113.453125 154.46875 113.707031 C 147.742188 114.605469 143.0625 108.972656 140.046875 103.617188 C 136.433594 97.210938 133.195312 90.828125 129.0625 84.703125 C 124.734375 78.265625 119.746094 73.039062 114.992188 67.148438 C 112.132812 63.613281 108.902344 60.683594 106.203125 56.898438 C 104.085938 53.914062 101.785156 51.078125 99.308594 48.386719 C 96.085938 44.894531 89.5 41.257812 86.027344 46.34375 C 83.863281 49.515625 82.761719 53.304688 82.722656 57.707031 C 82.65625 65.59375 82.601562 72.78125 82.5625 79.265625 C 82.496094 89.613281 83.371094 99.863281 84.144531 109.988281 C 84.375 112.980469 84.527344 116.128906 84.605469 119.441406 C 84.691406 123.371094 85.269531 127.144531 86.335938 130.753906 C 88.105469 136.757812 89.816406 143.011719 91.464844 149.523438 C 92.613281 154.046875 93.316406 158.074219 93.574219 161.605469 C 94.027344 167.769531 94.195312 171.949219 94.070312 174.144531 C 93.894531 177.34375 93.746094 180.378906 93.628906 183.246094 C 93.535156 185.574219 93.199219 188.269531 92.613281 191.332031 C 91.964844 194.75 91.675781 197.46875 91.75 199.484375 C 92 206.558594 92.234375 213.628906 92.457031 220.703125 C 92.632812 226.335938 92.222656 233.675781 91.222656 242.714844 C 90.042969 253.367188 87.894531 265.054688 86.878906 276.410156 C 86.128906 284.75 85.414062 293.125 84.738281 301.539062 C 84.699219 301.976562 84.664062 303.691406 84.628906 306.679688 C 84.601562 308.511719 84.371094 310.21875 83.9375 311.804688 L 82.28125 311.804688 C 83.089844 296.257812 84.03125 280.722656 85.09375 265.195312 C 85.34375 261.519531 85.820312 255.992188 86.519531 248.617188 C 87.300781 240.289062 87.664062 232.625 87.609375 225.617188 C 87.554688 219.257812 87.332031 212.839844 86.945312 206.367188 C 86.929688 206.140625 86.839844 205.953125 86.667969 205.804688 C 86.5 205.65625 86.300781 205.589844 86.078125 205.609375 C 83.179688 205.855469 80.421875 206.144531 77.800781 206.484375 C 77.0625 206.582031 76.433594 206.398438 75.917969 205.925781 C 75.832031 205.847656 75.769531 205.75 75.730469 205.636719 C 75.695312 205.527344 75.6875 205.414062 75.710938 205.296875 C 75.734375 205.179688 75.785156 205.078125 75.863281 204.988281 C 75.9375 204.898438 76.03125 204.835938 76.144531 204.792969 C 78.953125 203.785156 82.363281 202.996094 86.378906 202.421875 C 86.425781 202.417969 86.464844 202.394531 86.484375 202.347656 C 86.636719 202.066406 86.839844 199.757812 87.09375 195.425781 C 87.097656 195.292969 87.035156 195.226562 86.902344 195.226562 C 84.726562 195.160156 82.605469 195.117188 80.539062 195.101562 C 77.699219 195.085938 75.359375 193.9375 72.5625 194.09375 C 72.429688 194.101562 72.320312 194.058594 72.234375 193.957031 C 72.148438 193.855469 72.117188 193.742188 72.144531 193.613281 C 72.335938 192.667969 72.851562 192.21875 73.695312 192.257812 C 77.210938 192.410156 80.898438 192.476562 84.761719 192.457031 C 87.351562 192.4375 88.632812 191 87.910156 188.59375 C 87.820312 188.296875 87.632812 188.085938 87.34375 187.972656 C 84.445312 186.800781 81.675781 185.519531 79.03125 184.128906 C 77.210938 183.164062 75.21875 182.621094 73.335938 181.796875 C 72.886719 181.605469 72.621094 181.273438 72.539062 180.808594 C 72.460938 180.386719 72.636719 180.214844 73.0625 180.292969 C 76.941406 180.964844 80.554688 181.964844 83.894531 183.296875 C 85.207031 183.816406 86.585938 184.1875 88.035156 184.410156 C 88.15625 184.429688 88.273438 184.421875 88.390625 184.386719 C 88.511719 184.355469 88.617188 184.296875 88.707031 184.21875 C 88.800781 184.140625 88.875 184.046875 88.925781 183.933594 C 88.980469 183.824219 89.007812 183.707031 89.007812 183.585938 C 89.042969 180.242188 89.808594 177.039062 89.707031 173.644531 C 89.449219 164.726562 89.140625 159.335938 88.785156 157.472656 C 87.402344 150.191406 86.253906 142.601562 84.019531 135.507812 C 83.273438 133.109375 82.816406 130.699219 82.65625 128.277344 C 82.273438 122.527344 82.339844 116.726562 81.898438 110.894531 C 81.226562 102.082031 80.65625 91.121094 80.191406 78.015625 C 80.136719 76.453125 80.109375 74.988281 80.117188 73.632812 C 80.132812 70.507812 80.039062 67.644531 79.832031 65.035156 C 79.625 62.347656 79.898438 59.746094 79.882812 57.082031 C 79.859375 54.601562 80.238281 52.011719 81.015625 49.3125 C 82.105469 45.519531 85.554688 41.722656 89.46875 41.574219 C 94.878906 41.359375 100.144531 45.566406 103.414062 49.546875 C 105.714844 52.324219 107.804688 55.109375 109.6875 57.90625 C 111.277344 60.265625 113.007812 62.402344 114.875 64.320312 C 119.226562 68.808594 123.457031 73.535156 127.566406 78.5 C 134.910156 87.375 140.105469 96.917969 146.125 106.46875 C 147.925781 109.316406 150.410156 110.394531 153.585938 109.707031 C 155.691406 109.257812 157.652344 108.800781 159.464844 108.339844 C 159.628906 108.300781 159.773438 108.230469 159.90625 108.128906 C 160.035156 108.023438 160.140625 107.898438 160.21875 107.753906 C 160.292969 107.605469 160.339844 107.449219 160.351562 107.285156 C 160.363281 107.121094 160.339844 106.957031 160.28125 106.800781 L 158.125 100.96875 C 158.074219 100.828125 158.085938 100.691406 158.15625 100.558594 C 158.226562 100.425781 158.335938 100.339844 158.484375 100.304688 C 158.679688 100.261719 158.871094 100.273438 159.058594 100.347656 C 159.523438 100.539062 159.871094 100.859375 160.097656 101.304688 C 160.742188 102.523438 161.308594 103.78125 161.796875 105.082031 C 162.707031 107.492188 164.5 108.046875 167.167969 106.746094 C 167.371094 106.648438 167.515625 106.496094 167.605469 106.289062 C 167.695312 106.082031 167.703125 105.871094 167.636719 105.65625 C 167.207031 104.324219 167.121094 102.933594 167.371094 101.484375 C 167.617188 100.023438 168.109375 99.9375 168.835938 101.226562 C 169.527344 102.453125 170.058594 103.835938 170.425781 105.371094 C 170.472656 105.566406 170.582031 105.71875 170.75 105.824219 C 170.917969 105.933594 171.101562 105.96875 171.300781 105.929688 L 173.421875 105.511719 C 173.890625 105.425781 174.113281 105.140625 174.097656 104.664062 C 174.054688 103.644531 174.21875 102.699219 174.597656 101.835938 C 174.703125 101.601562 174.878906 101.492188 175.136719 101.503906 C 175.390625 101.519531 175.550781 101.648438 175.621094 101.894531 L 176.429688 104.605469 C 176.472656 104.746094 176.550781 104.855469 176.667969 104.941406 C 176.789062 105.023438 176.917969 105.0625 177.0625 105.054688 C 181.265625 104.828125 185.578125 104.554688 190.003906 104.238281 C 194.484375 103.914062 198.617188 104.097656 202.410156 104.789062 C 202.753906 104.851562 202.949219 104.707031 202.992188 104.363281 C 203.160156 102.902344 202.976562 101.210938 203.46875 99.847656 C 203.550781 99.621094 203.710938 99.496094 203.953125 99.472656 C 204.195312 99.449219 204.375 99.539062 204.5 99.746094 C 205.605469 101.605469 206.519531 103.492188 207.242188 105.40625 C 207.378906 105.769531 207.640625 105.996094 208.023438 106.085938 L 210.1875 106.570312 C 210.464844 106.636719 210.667969 106.542969 210.796875 106.285156 C 211.980469 103.972656 212.835938 101.652344 213.371094 99.324219 C 213.734375 97.71875 214.125 97.71875 214.535156 99.316406 C 215.179688 101.800781 215.5625 104.507812 215.683594 107.433594 C 215.695312 107.640625 215.792969 107.78125 215.984375 107.855469 C 216.175781 107.929688 216.347656 107.894531 216.492188 107.75 C 217.839844 106.386719 218.773438 103.609375 219.757812 102.003906 C 220.390625 100.96875 220.765625 101.058594 220.878906 102.269531 C 221.105469 104.574219 219.433594 106.113281 219.214844 108.441406 C 219.203125 108.59375 219.21875 108.742188 219.269531 108.886719 C 219.316406 109.03125 219.390625 109.160156 219.492188 109.273438 C 219.589844 109.390625 219.710938 109.476562 219.847656 109.542969 C 219.984375 109.609375 220.128906 109.644531 220.28125 109.648438 C 221.332031 109.6875 222.25 109.289062 223.046875 108.457031 C 226.820312 104.480469 230.097656 100.128906 232.871094 95.394531 C 233.671875 94.042969 234.449219 92.742188 235.203125 91.492188 C 241.382812 81.316406 247.574219 71.144531 253.78125 60.976562 C 256.785156 56.050781 259.460938 51.460938 261.808594 47.207031 C 264.597656 42.148438 267.570312 37.796875 271.425781 33.664062 C 272.136719 32.90625 273.34375 32.363281 274.375 32.398438 C 279.53125 32.5625 282.710938 34.925781 283.910156 39.484375 C 284.902344 43.269531 286.054688 47.054688 287.367188 50.84375 C 288.230469 53.355469 288.613281 55.894531 289.023438 58.472656 C 290.207031 65.910156 291.371094 73.117188 292.519531 80.09375 C 293.253906 84.570312 293.78125 88.941406 294.101562 93.207031 C 294.445312 97.726562 294.851562 101.992188 295.320312 105.996094 C 295.851562 110.632812 296.125 114.980469 296.144531 119.042969 C 296.191406 130.429688 296.058594 140.671875 295.742188 149.773438 C 295.550781 155.414062 294.285156 160.191406 291.980469 165.125 C 291.15625 166.871094 290.523438 169.011719 290.074219 171.546875 C 289.449219 175.066406 288.910156 178.542969 288.449219 181.980469 C 288.433594 182.078125 288.445312 182.175781 288.484375 182.265625 C 288.519531 182.359375 288.578125 182.4375 288.65625 182.5 C 288.734375 182.5625 288.820312 182.601562 288.917969 182.617188 C 289.015625 182.632812 289.113281 182.625 289.207031 182.589844 C 291.371094 181.796875 298.007812 179.808594 300.066406 180.898438 C 300.257812 181.003906 300.347656 181.164062 300.339844 181.378906 C 300.332031 181.597656 300.230469 181.75 300.03125 181.839844 L 289.015625 186.832031 C 288.636719 187 288.429688 187.289062 288.390625 187.707031 C 288.3125 188.605469 288.347656 189.605469 288.5 190.707031 C 288.515625 190.851562 288.5625 190.984375 288.632812 191.109375 C 288.703125 191.234375 288.796875 191.34375 288.910156 191.429688 C 289.019531 191.519531 289.144531 191.585938 289.285156 191.625 C 289.421875 191.667969 289.5625 191.679688 289.707031 191.664062 C 292.558594 191.386719 295.359375 191.25 298.109375 191.25 C 299.175781 191.25 299.941406 191.324219 300.40625 191.472656 C 301.644531 191.863281 301.640625 192.242188 300.398438 192.613281 C 296.894531 193.664062 293.1875 194.316406 289.273438 194.578125 C 289.121094 194.585938 288.996094 194.644531 288.890625 194.757812 C 288.789062 194.867188 288.738281 195 288.738281 195.152344 L 288.773438 198.363281 C 288.773438 198.582031 288.84375 198.777344 288.980469 198.949219 C 289.117188 199.121094 289.292969 199.230469 289.507812 199.277344 C 294.054688 200.320312 298.40625 201.351562 302.570312 202.375 C 302.914062 202.457031 303.089844 202.675781 303.089844 203.03125 C 303.09375 203.347656 302.9375 203.503906 302.621094 203.496094 L 289.582031 203.238281 C 289.488281 203.234375 289.398438 203.253906 289.3125 203.289062 C 289.230469 203.328125 289.15625 203.382812 289.09375 203.453125 C 289.03125 203.523438 288.988281 203.601562 288.964844 203.691406 C 288.9375 203.78125 288.933594 203.871094 288.949219 203.960938 C 290.199219 211.875 291.105469 219.554688 290.820312 227.640625 C 290.65625 232.273438 290.40625 236.84375 290.074219 241.351562 C 289.714844 246.285156 287.589844 250.605469 286.949219 255.4375 C 286.285156 260.539062 284.75 265.554688 284.519531 270.789062 C 284.03125 281.605469 284.0625 292.226562 284.617188 302.652344 C 284.664062 303.453125 284.828125 304.96875 285.117188 307.203125 C 285.324219 308.777344 285.410156 310.3125 285.375 311.804688 Z M 285.375 311.804688 " fill-opacity="1" fill-rule="nonzero"/></g><path fill="#f9f9f9" d="M 206.089844 162.953125 C 209.75 154.035156 215.765625 147.296875 224.136719 142.746094 C 225.984375 141.742188 227.902344 141.179688 229.882812 141.0625 C 233.058594 140.875 235.804688 141.019531 238.125 141.496094 C 242.472656 142.390625 246.335938 144.90625 249.710938 149.042969 C 251.519531 151.261719 253.308594 153.75 255.082031 156.503906 C 259.019531 162.644531 259.917969 168.578125 258.6875 176.007812 C 257.804688 181.300781 250.410156 186.566406 245.8125 188.453125 C 233.679688 193.445312 220.621094 191.183594 209.421875 184.652344 C 208.167969 183.914062 207.222656 183.058594 206.582031 182.082031 C 202.808594 176.273438 203.617188 169.003906 206.089844 162.953125 Z M 222.804688 181.222656 C 223.277344 181.230469 223.75 181.15625 224.21875 181 C 224.683594 180.847656 225.140625 180.617188 225.582031 180.308594 C 226.027344 180 226.449219 179.621094 226.847656 179.167969 C 227.25 178.71875 227.621094 178.203125 227.964844 177.628906 C 228.308594 177.050781 228.617188 176.421875 228.890625 175.742188 C 229.164062 175.0625 229.398438 174.34375 229.589844 173.585938 C 229.78125 172.828125 229.929688 172.050781 230.035156 171.242188 C 230.136719 170.4375 230.195312 169.625 230.207031 168.804688 C 230.21875 167.980469 230.183594 167.167969 230.101562 166.359375 C 230.019531 165.550781 229.894531 164.765625 229.722656 164.003906 C 229.550781 163.242188 229.339844 162.519531 229.085938 161.832031 C 228.832031 161.144531 228.539062 160.507812 228.214844 159.921875 C 227.886719 159.335938 227.527344 158.8125 227.140625 158.347656 C 226.75 157.886719 226.339844 157.496094 225.90625 157.175781 C 225.472656 156.851562 225.023438 156.609375 224.5625 156.441406 C 224.097656 156.277344 223.628906 156.1875 223.152344 156.183594 C 222.679688 156.175781 222.207031 156.25 221.742188 156.402344 C 221.273438 156.558594 220.816406 156.789062 220.375 157.097656 C 219.933594 157.40625 219.511719 157.785156 219.109375 158.238281 C 218.707031 158.6875 218.335938 159.203125 217.992188 159.777344 C 217.648438 160.355469 217.339844 160.984375 217.066406 161.664062 C 216.792969 162.34375 216.5625 163.0625 216.367188 163.816406 C 216.175781 164.574219 216.027344 165.355469 215.925781 166.160156 C 215.820312 166.964844 215.761719 167.78125 215.75 168.601562 C 215.738281 169.425781 215.773438 170.238281 215.855469 171.046875 C 215.9375 171.855469 216.0625 172.640625 216.234375 173.402344 C 216.40625 174.164062 216.617188 174.886719 216.871094 175.574219 C 217.125 176.261719 217.417969 176.898438 217.746094 177.484375 C 218.070312 178.070312 218.429688 178.59375 218.816406 179.058594 C 219.207031 179.519531 219.617188 179.910156 220.050781 180.230469 C 220.484375 180.550781 220.933594 180.796875 221.398438 180.960938 C 221.859375 181.128906 222.328125 181.214844 222.804688 181.222656 Z M 222.804688 181.222656 " fill-opacity="1" fill-rule="nonzero"/><path fill="#f9f9f9" d="M 167.34375 155.367188 C 169.152344 159.367188 169.660156 162.960938 170.417969 167.136719 C 171.242188 171.691406 170.523438 175.375 168.667969 179.367188 C 166.746094 183.496094 164.164062 186.191406 160.117188 188.144531 C 154.519531 190.84375 148.6875 191.820312 142.621094 191.082031 C 138.722656 190.609375 135.382812 189.152344 131.671875 188.136719 C 130.027344 187.6875 128.542969 187.164062 127.222656 186.566406 C 121.769531 184.085938 117.015625 178.429688 116.273438 172.046875 C 116.117188 170.667969 115.878906 169.226562 115.554688 167.730469 C 114.300781 161.863281 124.734375 150.773438 129.15625 147.652344 C 134.117188 144.152344 142.730469 140.375 148.964844 141.644531 C 151.898438 142.238281 154.953125 143.429688 158.132812 145.214844 C 162.257812 147.535156 165.328125 150.917969 167.34375 155.367188 Z M 146.183594 165.980469 C 145.445312 169.785156 146.21875 177.089844 149.832031 179.984375 C 153.230469 182.703125 157.027344 180.277344 158.199219 176.664062 C 159.648438 172.214844 159.742188 166.855469 158.675781 162.453125 C 158.074219 159.992188 156.472656 158.5 153.863281 157.976562 C 150.113281 157.222656 146.660156 163.527344 146.183594 165.980469 Z M 146.183594 165.980469 " fill-opacity="1" fill-rule="nonzero"/><path fill="#f9f9f9" d="M 193.183594 194.328125 C 189.296875 194.203125 190.800781 198.863281 187.589844 198.613281 C 185.714844 198.464844 184.808594 196.75 184.097656 195.257812 C 183.949219 194.953125 183.707031 194.773438 183.375 194.710938 C 181.46875 194.351562 179.886719 194.628906 178.328125 193.171875 C 178.039062 192.90625 177.871094 192.578125 177.824219 192.1875 C 177.773438 191.800781 177.855469 191.445312 178.070312 191.117188 C 179.195312 189.351562 181.390625 186.597656 183.625 186.699219 C 184.796875 186.75 185.988281 187.695312 187.039062 188.230469 C 187.382812 188.402344 187.707031 188.367188 188.011719 188.128906 C 189.238281 187.171875 190.8125 185.667969 192.460938 186.648438 C 194.082031 187.613281 199.445312 191.507812 195.949219 193.628906 C 195.136719 194.121094 194.214844 194.355469 193.183594 194.328125 Z M 193.183594 194.328125 " fill-opacity="1" fill-rule="nonzero"/><g fill="#051d40" fill-opacity="1"><g transform="translate(7.704239, 372.10792)"><g><path d="M 0.71875 -0.984375 C 0.769531 -0.972656 0.828125 -0.960938 0.890625 -0.953125 C 0.960938 -0.941406 1.039062 -0.9375 1.125 -0.9375 C 1.257812 -0.9375 1.378906 -0.953125 1.484375 -0.984375 C 1.597656 -1.023438 1.691406 -1.078125 1.765625 -1.140625 C 1.835938 -1.210938 1.890625 -1.289062 1.921875 -1.375 C 1.960938 -1.46875 1.984375 -1.5625 1.984375 -1.65625 C 1.984375 -1.75 1.960938 -1.835938 1.921875 -1.921875 C 1.890625 -2.015625 1.84375 -2.09375 1.78125 -2.15625 C 1.71875 -2.226562 1.632812 -2.28125 1.53125 -2.3125 C 1.4375 -2.351562 1.328125 -2.375 1.203125 -2.375 L 0.40625 -2.375 L 0.40625 0 L 0.71875 0 Z M 0.71875 -2.21875 L 1.078125 -2.21875 C 1.171875 -2.21875 1.253906 -2.203125 1.328125 -2.171875 C 1.398438 -2.140625 1.457031 -2.09375 1.5 -2.03125 C 1.550781 -1.976562 1.585938 -1.914062 1.609375 -1.84375 C 1.628906 -1.78125 1.640625 -1.710938 1.640625 -1.640625 C 1.640625 -1.578125 1.628906 -1.507812 1.609375 -1.4375 C 1.585938 -1.375 1.550781 -1.316406 1.5 -1.265625 C 1.457031 -1.210938 1.398438 -1.164062 1.328125 -1.125 C 1.253906 -1.09375 1.164062 -1.078125 1.0625 -1.078125 C 1 -1.078125 0.9375 -1.082031 0.875 -1.09375 C 0.8125 -1.101562 0.757812 -1.113281 0.71875 -1.125 Z M 0.71875 -2.21875 "/></g></g></g><g fill="#051d40" fill-opacity="1"><g transform="translate(9.779815, 372.10792)"><g><path d="M 0.40625 -2.375 L 0.40625 0 L 0.71875 0 L 0.71875 -1.046875 L 0.859375 -1.046875 C 0.921875 -1.046875 0.972656 -1.039062 1.015625 -1.03125 C 1.054688 -1.019531 1.09375 -1 1.125 -0.96875 C 1.164062 -0.945312 1.203125 -0.910156 1.234375 -0.859375 C 1.265625 -0.816406 1.296875 -0.765625 1.328125 -0.703125 L 1.609375 -0.3125 C 1.640625 -0.257812 1.671875 -0.210938 1.703125 -0.171875 C 1.734375 -0.128906 1.769531 -0.09375 1.8125 -0.0625 C 1.851562 -0.03125 1.894531 -0.00390625 1.9375 0.015625 C 1.988281 0.0351562 2.046875 0.046875 2.109375 0.046875 C 2.160156 0.046875 2.203125 0.0390625 2.234375 0.03125 C 2.265625 0.03125 2.296875 0.0195312 2.328125 0 L 2.328125 -0.125 C 2.316406 -0.125 2.304688 -0.125 2.296875 -0.125 C 2.285156 -0.125 2.273438 -0.125 2.265625 -0.125 C 2.210938 -0.125 2.164062 -0.128906 2.125 -0.140625 C 2.09375 -0.148438 2.0625 -0.164062 2.03125 -0.1875 C 2 -0.21875 1.96875 -0.25 1.9375 -0.28125 C 1.914062 -0.320312 1.890625 -0.367188 1.859375 -0.421875 C 1.765625 -0.554688 1.691406 -0.664062 1.640625 -0.75 C 1.585938 -0.832031 1.546875 -0.894531 1.515625 -0.9375 C 1.484375 -0.988281 1.457031 -1.023438 1.4375 -1.046875 C 1.414062 -1.066406 1.390625 -1.082031 1.359375 -1.09375 L 1.328125 -1.109375 L 1.328125 -1.125 C 1.441406 -1.125 1.535156 -1.144531 1.609375 -1.1875 C 1.691406 -1.226562 1.753906 -1.28125 1.796875 -1.34375 C 1.847656 -1.40625 1.882812 -1.472656 1.90625 -1.546875 C 1.9375 -1.617188 1.953125 -1.6875 1.953125 -1.75 C 1.953125 -1.8125 1.9375 -1.878906 1.90625 -1.953125 C 1.882812 -2.023438 1.84375 -2.09375 1.78125 -2.15625 C 1.726562 -2.21875 1.648438 -2.269531 1.546875 -2.3125 C 1.453125 -2.351562 1.328125 -2.375 1.171875 -2.375 Z M 0.71875 -2.21875 L 1.0625 -2.21875 C 1.144531 -2.21875 1.21875 -2.207031 1.28125 -2.1875 C 1.351562 -2.164062 1.414062 -2.128906 1.46875 -2.078125 C 1.519531 -2.035156 1.554688 -1.984375 1.578125 -1.921875 C 1.609375 -1.859375 1.625 -1.789062 1.625 -1.71875 C 1.625 -1.664062 1.609375 -1.609375 1.578125 -1.546875 C 1.554688 -1.484375 1.519531 -1.425781 1.46875 -1.375 C 1.425781 -1.320312 1.367188 -1.28125 1.296875 -1.25 C 1.234375 -1.21875 1.15625 -1.203125 1.0625 -1.203125 L 0.71875 -1.203125 Z M 0.71875 -2.21875 "/></g></g></g><g fill="#051d40" fill-opacity="1"><g transform="translate(12.210915, 372.10792)"><g><path d="M 0.171875 -1.1875 C 0.171875 -1.0625 0.191406 -0.925781 0.234375 -0.78125 C 0.285156 -0.632812 0.363281 -0.5 0.46875 -0.375 C 0.570312 -0.257812 0.703125 -0.160156 0.859375 -0.078125 C 1.023438 0.00390625 1.21875 0.046875 1.4375 0.046875 C 1.59375 0.046875 1.734375 0.0234375 1.859375 -0.015625 C 1.984375 -0.0546875 2.09375 -0.109375 2.1875 -0.171875 C 2.289062 -0.234375 2.375 -0.304688 2.4375 -0.390625 C 2.507812 -0.472656 2.566406 -0.554688 2.609375 -0.640625 C 2.660156 -0.734375 2.695312 -0.828125 2.71875 -0.921875 C 2.75 -1.015625 2.765625 -1.101562 2.765625 -1.1875 C 2.765625 -1.3125 2.738281 -1.445312 2.6875 -1.59375 C 2.632812 -1.738281 2.550781 -1.867188 2.4375 -1.984375 C 2.332031 -2.109375 2.195312 -2.210938 2.03125 -2.296875 C 1.863281 -2.378906 1.664062 -2.421875 1.4375 -2.421875 C 1.21875 -2.421875 1.023438 -2.378906 0.859375 -2.296875 C 0.703125 -2.210938 0.570312 -2.109375 0.46875 -1.984375 C 0.363281 -1.867188 0.285156 -1.738281 0.234375 -1.59375 C 0.191406 -1.445312 0.171875 -1.3125 0.171875 -1.1875 Z M 0.5 -1.1875 C 0.5 -1.34375 0.519531 -1.488281 0.5625 -1.625 C 0.613281 -1.757812 0.679688 -1.875 0.765625 -1.96875 C 0.859375 -2.0625 0.960938 -2.132812 1.078125 -2.1875 C 1.191406 -2.238281 1.316406 -2.265625 1.453125 -2.265625 C 1.585938 -2.265625 1.710938 -2.238281 1.828125 -2.1875 C 1.941406 -2.132812 2.046875 -2.0625 2.140625 -1.96875 C 2.234375 -1.875 2.304688 -1.757812 2.359375 -1.625 C 2.410156 -1.488281 2.4375 -1.34375 2.4375 -1.1875 C 2.4375 -1.03125 2.410156 -0.882812 2.359375 -0.75 C 2.304688 -0.613281 2.234375 -0.5 2.140625 -0.40625 C 2.046875 -0.3125 1.941406 -0.238281 1.828125 -0.1875 C 1.710938 -0.132812 1.585938 -0.109375 1.453125 -0.109375 C 1.316406 -0.109375 1.191406 -0.132812 1.078125 -0.1875 C 0.960938 -0.238281 0.859375 -0.3125 0.765625 -0.40625 C 0.679688 -0.5 0.613281 -0.613281 0.5625 -0.75 C 0.519531 -0.882812 0.5 -1.03125 0.5 -1.1875 Z M 0.5 -1.1875 "/></g></g></g><g fill="#051d40" fill-opacity="1"><g transform="translate(15.139745, 372.10792)"><g><path d="M 1.28125 0 L 1.28125 -2.1875 L 2.1875 -2.1875 L 2.1875 -2.375 L 0.0625 -2.375 L 0.0625 -2.1875 L 0.96875 -2.1875 L 0.96875 0 Z M 1.28125 0 "/></g></g></g><g fill="#051d40" fill-opacity="1"><g transform="translate(17.398161, 372.10792)"><g><path d="M 0.171875 -1.1875 C 0.171875 -1.0625 0.191406 -0.925781 0.234375 -0.78125 C 0.285156 -0.632812 0.363281 -0.5 0.46875 -0.375 C 0.570312 -0.257812 0.703125 -0.160156 0.859375 -0.078125 C 1.023438 0.00390625 1.21875 0.046875 1.4375 0.046875 C 1.59375 0.046875 1.734375 0.0234375 1.859375 -0.015625 C 1.984375 -0.0546875 2.09375 -0.109375 2.1875 -0.171875 C 2.289062 -0.234375 2.375 -0.304688 2.4375 -0.390625 C 2.507812 -0.472656 2.566406 -0.554688 2.609375 -0.640625 C 2.660156 -0.734375 2.695312 -0.828125 2.71875 -0.921875 C 2.75 -1.015625 2.765625 -1.101562 2.765625 -1.1875 C 2.765625 -1.3125 2.738281 -1.445312 2.6875 -1.59375 C 2.632812 -1.738281 2.550781 -1.867188 2.4375 -1.984375 C 2.332031 -2.109375 2.195312 -2.210938 2.03125 -2.296875 C 1.863281 -2.378906 1.664062 -2.421875 1.4375 -2.421875 C 1.21875 -2.421875 1.023438 -2.378906 0.859375 -2.296875 C 0.703125 -2.210938 0.570312 -2.109375 0.46875 -1.984375 C 0.363281 -1.867188 0.285156 -1.738281 0.234375 -1.59375 C 0.191406 -1.445312 0.171875 -1.3125 0.171875 -1.1875 Z M 0.5 -1.1875 C 0.5 -1.34375 0.519531 -1.488281 0.5625 -1.625 C 0.613281 -1.757812 0.679688 -1.875 0.765625 -1.96875 C 0.859375 -2.0625 0.960938 -2.132812 1.078125 -2.1875 C 1.191406 -2.238281 1.316406 -2.265625 1.453125 -2.265625 C 1.585938 -2.265625 1.710938 -2.238281 1.828125 -2.1875 C 1.941406 -2.132812 2.046875 -2.0625 2.140625 -1.96875 C 2.234375 -1.875 2.304688 -1.757812 2.359375 -1.625 C 2.410156 -1.488281 2.4375 -1.34375 2.4375 -1.1875 C 2.4375 -1.03125 2.410156 -0.882812 2.359375 -0.75 C 2.304688 -0.613281 2.234375 -0.5 2.140625 -0.40625 C 2.046875 -0.3125 1.941406 -0.238281 1.828125 -0.1875 C 1.710938 -0.132812 1.585938 -0.109375 1.453125 -0.109375 C 1.316406 -0.109375 1.191406 -0.132812 1.078125 -0.1875 C 0.960938 -0.238281 0.859375 -0.3125 0.765625 -0.40625 C 0.679688 -0.5 0.613281 -0.613281 0.5625 -0.75 C 0.519531 -0.882812 0.5 -1.03125 0.5 -1.1875 Z M 0.5 -1.1875 "/></g></g></g><g fill="#051d40" fill-opacity="1"><g transform="translate(20.326992, 372.10792)"><g><path d="M 0.71875 -0.984375 C 0.769531 -0.972656 0.828125 -0.960938 0.890625 -0.953125 C 0.960938 -0.941406 1.039062 -0.9375 1.125 -0.9375 C 1.257812 -0.9375 1.378906 -0.953125 1.484375 -0.984375 C 1.597656 -1.023438 1.691406 -1.078125 1.765625 -1.140625 C 1.835938 -1.210938 1.890625 -1.289062 1.921875 -1.375 C 1.960938 -1.46875 1.984375 -1.5625 1.984375 -1.65625 C 1.984375 -1.75 1.960938 -1.835938 1.921875 -1.921875 C 1.890625 -2.015625 1.84375 -2.09375 1.78125 -2.15625 C 1.71875 -2.226562 1.632812 -2.28125 1.53125 -2.3125 C 1.4375 -2.351562 1.328125 -2.375 1.203125 -2.375 L 0.40625 -2.375 L 0.40625 0 L 0.71875 0 Z M 0.71875 -2.21875 L 1.078125 -2.21875 C 1.171875 -2.21875 1.253906 -2.203125 1.328125 -2.171875 C 1.398438 -2.140625 1.457031 -2.09375 1.5 -2.03125 C 1.550781 -1.976562 1.585938 -1.914062 1.609375 -1.84375 C 1.628906 -1.78125 1.640625 -1.710938 1.640625 -1.640625 C 1.640625 -1.578125 1.628906 -1.507812 1.609375 -1.4375 C 1.585938 -1.375 1.550781 -1.316406 1.5 -1.265625 C 1.457031 -1.210938 1.398438 -1.164062 1.328125 -1.125 C 1.253906 -1.09375 1.164062 -1.078125 1.0625 -1.078125 C 1 -1.078125 0.9375 -1.082031 0.875 -1.09375 C 0.8125 -1.101562 0.757812 -1.113281 0.71875 -1.125 Z M 0.71875 -2.21875 "/></g></g></g><g fill="#051d40" fill-opacity="1"><g transform="translate(22.402567, 372.10792)"><g><path d="M 1.28125 0 L 1.28125 -2.1875 L 2.1875 -2.1875 L 2.1875 -2.375 L 0.0625 -2.375 L 0.0625 -2.1875 L 0.96875 -2.1875 L 0.96875 0 Z M 1.28125 0 "/></g></g></g><g fill="#051d40" fill-opacity="1"><g transform="translate(24.660984, 372.10792)"><g><path d="M 0.546875 -2.375 L 0.546875 0 L 0.84375 0 L 0.84375 -2.375 Z M 0.546875 -2.375 "/></g></g></g><g fill="#051d40" fill-opacity="1"><g transform="translate(26.052601, 372.10792)"><g><path d="M 2.40625 -0.4375 C 2.175781 -0.21875 1.898438 -0.109375 1.578125 -0.109375 C 1.398438 -0.109375 1.242188 -0.140625 1.109375 -0.203125 C 0.972656 -0.265625 0.859375 -0.34375 0.765625 -0.4375 C 0.679688 -0.539062 0.613281 -0.660156 0.5625 -0.796875 C 0.519531 -0.929688 0.5 -1.070312 0.5 -1.21875 C 0.5 -1.375 0.519531 -1.515625 0.5625 -1.640625 C 0.613281 -1.765625 0.679688 -1.875 0.765625 -1.96875 C 0.859375 -2.0625 0.96875 -2.132812 1.09375 -2.1875 C 1.21875 -2.238281 1.347656 -2.265625 1.484375 -2.265625 C 1.585938 -2.265625 1.675781 -2.253906 1.75 -2.234375 C 1.832031 -2.210938 1.90625 -2.179688 1.96875 -2.140625 C 2.03125 -2.109375 2.082031 -2.066406 2.125 -2.015625 C 2.164062 -1.972656 2.191406 -1.925781 2.203125 -1.875 L 2.453125 -1.875 C 2.421875 -1.957031 2.378906 -2.03125 2.328125 -2.09375 C 2.273438 -2.15625 2.207031 -2.207031 2.125 -2.25 C 2.039062 -2.300781 1.945312 -2.34375 1.84375 -2.375 C 1.738281 -2.40625 1.617188 -2.421875 1.484375 -2.421875 C 1.285156 -2.421875 1.101562 -2.390625 0.9375 -2.328125 C 0.78125 -2.273438 0.644531 -2.191406 0.53125 -2.078125 C 0.414062 -1.972656 0.328125 -1.847656 0.265625 -1.703125 C 0.203125 -1.554688 0.171875 -1.390625 0.171875 -1.203125 C 0.171875 -1.046875 0.195312 -0.890625 0.25 -0.734375 C 0.300781 -0.585938 0.378906 -0.457031 0.484375 -0.34375 C 0.585938 -0.226562 0.722656 -0.132812 0.890625 -0.0625 C 1.054688 0.0078125 1.253906 0.046875 1.484375 0.046875 C 1.617188 0.046875 1.742188 0.03125 1.859375 0 C 1.972656 -0.03125 2.070312 -0.0625 2.15625 -0.09375 C 2.25 -0.132812 2.320312 -0.175781 2.375 -0.21875 C 2.4375 -0.269531 2.476562 -0.3125 2.5 -0.34375 Z M 2.40625 -0.4375 "/></g></g></g><g fill="#051d40" fill-opacity="1"><g transform="translate(28.622523, 372.10792)"><g/></g></g><g fill="#051d40" fill-opacity="1"><g transform="translate(29.807599, 372.10792)"><g><path d="M 2.40625 -0.4375 C 2.175781 -0.21875 1.898438 -0.109375 1.578125 -0.109375 C 1.398438 -0.109375 1.242188 -0.140625 1.109375 -0.203125 C 0.972656 -0.265625 0.859375 -0.34375 0.765625 -0.4375 C 0.679688 -0.539062 0.613281 -0.660156 0.5625 -0.796875 C 0.519531 -0.929688 0.5 -1.070312 0.5 -1.21875 C 0.5 -1.375 0.519531 -1.515625 0.5625 -1.640625 C 0.613281 -1.765625 0.679688 -1.875 0.765625 -1.96875 C 0.859375 -2.0625 0.96875 -2.132812 1.09375 -2.1875 C 1.21875 -2.238281 1.347656 -2.265625 1.484375 -2.265625 C 1.585938 -2.265625 1.675781 -2.253906 1.75 -2.234375 C 1.832031 -2.210938 1.90625 -2.179688 1.96875 -2.140625 C 2.03125 -2.109375 2.082031 -2.066406 2.125 -2.015625 C 2.164062 -1.972656 2.191406 -1.925781 2.203125 -1.875 L 2.453125 -1.875 C 2.421875 -1.957031 2.378906 -2.03125 2.328125 -2.09375 C 2.273438 -2.15625 2.207031 -2.207031 2.125 -2.25 C 2.039062 -2.300781 1.945312 -2.34375 1.84375 -2.375 C 1.738281 -2.40625 1.617188 -2.421875 1.484375 -2.421875 C 1.285156 -2.421875 1.101562 -2.390625 0.9375 -2.328125 C 0.78125 -2.273438 0.644531 -2.191406 0.53125 -2.078125 C 0.414062 -1.972656 0.328125 -1.847656 0.265625 -1.703125 C 0.203125 -1.554688 0.171875 -1.390625 0.171875 -1.203125 C 0.171875 -1.046875 0.195312 -0.890625 0.25 -0.734375 C 0.300781 -0.585938 0.378906 -0.457031 0.484375 -0.34375 C 0.585938 -0.226562 0.722656 -0.132812 0.890625 -0.0625 C 1.054688 0.0078125 1.253906 0.046875 1.484375 0.046875 C 1.617188 0.046875 1.742188 0.03125 1.859375 0 C 1.972656 -0.03125 2.070312 -0.0625 2.15625 -0.09375 C 2.25 -0.132812 2.320312 -0.175781 2.375 -0.21875 C 2.4375 -0.269531 2.476562 -0.3125 2.5 -0.34375 Z M 2.40625 -0.4375 "/></g></g></g><g fill="#051d40" fill-opacity="1"><g transform="translate(32.377521, 372.10792)"><g><path d="M 0.40625 0 L 0.40625 -2.375 L 0.71875 -2.375 L 0.71875 -0.1875 L 1.9375 -0.1875 L 1.9375 0 Z M 0.40625 0 "/></g></g></g><g fill="#051d40" fill-opacity="1"><g transform="translate(34.415853, 372.10792)"><g><path d="M 0.546875 -2.375 L 0.546875 0 L 0.84375 0 L 0.84375 -2.375 Z M 0.546875 -2.375 "/></g></g></g><g fill="#051d40" fill-opacity="1"><g transform="translate(35.807469, 372.10792)"><g><path d="M 2.3125 -2.375 L 2.3125 -0.5625 L 0.421875 -2.421875 L 0.40625 -2.421875 L 0.40625 0 L 0.5625 0 L 0.5625 -1.8125 L 0.578125 -1.8125 L 2.453125 0.046875 L 2.46875 0.046875 L 2.46875 -2.375 Z M 2.3125 -2.375 "/></g></g></g><g fill="#051d40" fill-opacity="1"><g transform="translate(38.685512, 372.10792)"><g><path d="M 0.546875 -2.375 L 0.546875 0 L 0.84375 0 L 0.84375 -2.375 Z M 0.546875 -2.375 "/></g></g></g><g fill="#051d40" fill-opacity="1"><g transform="translate(40.077128, 372.10792)"><g><path d="M 2.40625 -0.4375 C 2.175781 -0.21875 1.898438 -0.109375 1.578125 -0.109375 C 1.398438 -0.109375 1.242188 -0.140625 1.109375 -0.203125 C 0.972656 -0.265625 0.859375 -0.34375 0.765625 -0.4375 C 0.679688 -0.539062 0.613281 -0.660156 0.5625 -0.796875 C 0.519531 -0.929688 0.5 -1.070312 0.5 -1.21875 C 0.5 -1.375 0.519531 -1.515625 0.5625 -1.640625 C 0.613281 -1.765625 0.679688 -1.875 0.765625 -1.96875 C 0.859375 -2.0625 0.96875 -2.132812 1.09375 -2.1875 C 1.21875 -2.238281 1.347656 -2.265625 1.484375 -2.265625 C 1.585938 -2.265625 1.675781 -2.253906 1.75 -2.234375 C 1.832031 -2.210938 1.90625 -2.179688 1.96875 -2.140625 C 2.03125 -2.109375 2.082031 -2.066406 2.125 -2.015625 C 2.164062 -1.972656 2.191406 -1.925781 2.203125 -1.875 L 2.453125 -1.875 C 2.421875 -1.957031 2.378906 -2.03125 2.328125 -2.09375 C 2.273438 -2.15625 2.207031 -2.207031 2.125 -2.25 C 2.039062 -2.300781 1.945312 -2.34375 1.84375 -2.375 C 1.738281 -2.40625 1.617188 -2.421875 1.484375 -2.421875 C 1.285156 -2.421875 1.101562 -2.390625 0.9375 -2.328125 C 0.78125 -2.273438 0.644531 -2.191406 0.53125 -2.078125 C 0.414062 -1.972656 0.328125 -1.847656 0.265625 -1.703125 C 0.203125 -1.554688 0.171875 -1.390625 0.171875 -1.203125 C 0.171875 -1.046875 0.195312 -0.890625 0.25 -0.734375 C 0.300781 -0.585938 0.378906 -0.457031 0.484375 -0.34375 C 0.585938 -0.226562 0.722656 -0.132812 0.890625 -0.0625 C 1.054688 0.0078125 1.253906 0.046875 1.484375 0.046875 C 1.617188 0.046875 1.742188 0.03125 1.859375 0 C 1.972656 -0.03125 2.070312 -0.0625 2.15625 -0.09375 C 2.25 -0.132812 2.320312 -0.175781 2.375 -0.21875 C 2.4375 -0.269531 2.476562 -0.3125 2.5 -0.34375 Z M 2.40625 -0.4375 "/></g></g></g><g fill="#051d40" fill-opacity="1"><g transform="translate(13.822105, 374.55296)"><g><path d="M 0.046875 -1.140625 L 0.4375 -0.4375 L 0.4375 0 L 0.59375 0 L 0.59375 -0.4375 L 0.984375 -1.140625 L 0.90625 -1.140625 L 0.546875 -0.53125 L 0.21875 -1.140625 Z M 0.046875 -1.140625 "/></g></g></g><g fill="#051d40" fill-opacity="1"><g transform="translate(14.860803, 374.55296)"><g><path d="M 0.921875 -0.40625 C 0.921875 -0.34375 0.910156 -0.285156 0.890625 -0.234375 C 0.867188 -0.191406 0.835938 -0.148438 0.796875 -0.109375 C 0.765625 -0.0664062 0.722656 -0.0351562 0.671875 -0.015625 C 0.617188 0.00390625 0.5625 0.015625 0.5 0.015625 C 0.4375 0.015625 0.378906 0.00390625 0.328125 -0.015625 C 0.273438 -0.0351562 0.226562 -0.0664062 0.1875 -0.109375 C 0.15625 -0.148438 0.128906 -0.195312 0.109375 -0.25 C 0.0859375 -0.300781 0.078125 -0.351562 0.078125 -0.40625 C 0.078125 -0.457031 0.0859375 -0.507812 0.109375 -0.5625 C 0.128906 -0.613281 0.15625 -0.660156 0.1875 -0.703125 C 0.226562 -0.742188 0.273438 -0.773438 0.328125 -0.796875 C 0.378906 -0.816406 0.4375 -0.828125 0.5 -0.828125 C 0.5625 -0.828125 0.617188 -0.816406 0.671875 -0.796875 C 0.722656 -0.773438 0.765625 -0.742188 0.796875 -0.703125 C 0.835938 -0.660156 0.867188 -0.613281 0.890625 -0.5625 C 0.910156 -0.507812 0.921875 -0.457031 0.921875 -0.40625 Z M 0.765625 -0.40625 C 0.765625 -0.476562 0.753906 -0.535156 0.734375 -0.578125 C 0.722656 -0.628906 0.703125 -0.664062 0.671875 -0.6875 C 0.648438 -0.71875 0.625 -0.738281 0.59375 -0.75 C 0.5625 -0.757812 0.53125 -0.765625 0.5 -0.765625 C 0.46875 -0.765625 0.4375 -0.757812 0.40625 -0.75 C 0.375 -0.738281 0.34375 -0.71875 0.3125 -0.6875 C 0.289062 -0.664062 0.269531 -0.628906 0.25 -0.578125 C 0.238281 -0.535156 0.234375 -0.476562 0.234375 -0.40625 C 0.234375 -0.332031 0.238281 -0.269531 0.25 -0.21875 C 0.269531 -0.175781 0.289062 -0.140625 0.3125 -0.109375 C 0.34375 -0.0859375 0.375 -0.0703125 0.40625 -0.0625 C 0.4375 -0.0507812 0.46875 -0.046875 0.5 -0.046875 C 0.53125 -0.046875 0.5625 -0.0507812 0.59375 -0.0625 C 0.625 -0.0703125 0.648438 -0.0859375 0.671875 -0.109375 C 0.703125 -0.140625 0.722656 -0.175781 0.734375 -0.21875 C 0.753906 -0.269531 0.765625 -0.332031 0.765625 -0.40625 Z M 0.765625 -0.40625 "/></g></g></g><g fill="#051d40" fill-opacity="1"><g transform="translate(15.865367, 374.55296)"><g><path d="M 0.125 -0.8125 L 0.125 -0.28125 C 0.125 -0.257812 0.125 -0.234375 0.125 -0.203125 C 0.132812 -0.171875 0.148438 -0.132812 0.171875 -0.09375 C 0.191406 -0.0625 0.21875 -0.0351562 0.25 -0.015625 C 0.289062 0.00390625 0.347656 0.015625 0.421875 0.015625 C 0.453125 0.015625 0.484375 0.0078125 0.515625 0 C 0.554688 -0.0078125 0.597656 -0.0351562 0.640625 -0.078125 L 0.671875 -0.109375 L 0.671875 0 L 0.8125 0 L 0.8125 -0.8125 L 0.671875 -0.8125 L 0.671875 -0.3125 C 0.671875 -0.269531 0.664062 -0.234375 0.65625 -0.203125 C 0.644531 -0.171875 0.628906 -0.144531 0.609375 -0.125 C 0.585938 -0.101562 0.5625 -0.0859375 0.53125 -0.078125 C 0.507812 -0.0664062 0.484375 -0.0625 0.453125 -0.0625 C 0.410156 -0.0625 0.375 -0.0703125 0.34375 -0.09375 C 0.320312 -0.113281 0.304688 -0.132812 0.296875 -0.15625 C 0.285156 -0.175781 0.273438 -0.195312 0.265625 -0.21875 C 0.265625 -0.25 0.265625 -0.269531 0.265625 -0.28125 L 0.265625 -0.8125 Z M 0.125 -0.8125 "/></g></g></g><g fill="#051d40" fill-opacity="1"><g transform="translate(16.809787, 374.55296)"><g><path d="M 0.125 -0.8125 L 0.125 0 L 0.265625 0 L 0.265625 -0.484375 C 0.265625 -0.535156 0.269531 -0.578125 0.28125 -0.609375 C 0.289062 -0.640625 0.300781 -0.660156 0.3125 -0.671875 C 0.332031 -0.691406 0.351562 -0.707031 0.375 -0.71875 C 0.394531 -0.726562 0.414062 -0.734375 0.4375 -0.734375 C 0.457031 -0.734375 0.476562 -0.722656 0.5 -0.703125 C 0.519531 -0.691406 0.535156 -0.679688 0.546875 -0.671875 L 0.609375 -0.765625 C 0.597656 -0.773438 0.582031 -0.785156 0.5625 -0.796875 C 0.550781 -0.804688 0.539062 -0.8125 0.53125 -0.8125 C 0.519531 -0.820312 0.503906 -0.828125 0.484375 -0.828125 C 0.472656 -0.828125 0.46875 -0.828125 0.46875 -0.828125 C 0.414062 -0.828125 0.375 -0.8125 0.34375 -0.78125 C 0.320312 -0.757812 0.300781 -0.726562 0.28125 -0.6875 L 0.265625 -0.6875 L 0.265625 -0.8125 Z M 0.125 -0.8125 "/></g></g></g><g fill="#051d40" fill-opacity="1"><g transform="translate(17.430731, 374.55296)"><g/></g></g><g fill="#051d40" fill-opacity="1"><g transform="translate(17.999658, 374.55296)"><g><path d="M 0.1875 -1.140625 L 0.1875 0 L 0.34375 0 L 0.34375 -0.5625 L 0.84375 -0.5625 L 0.84375 -0.640625 L 0.34375 -0.640625 L 0.34375 -1.046875 L 0.921875 -1.046875 L 0.921875 -1.140625 Z M 0.1875 -1.140625 "/></g></g></g><g fill="#051d40" fill-opacity="1"><g transform="translate(18.978214, 374.55296)"><g><path d="M 0.421875 -0.828125 C 0.503906 -0.828125 0.566406 -0.816406 0.609375 -0.796875 C 0.648438 -0.773438 0.679688 -0.742188 0.703125 -0.703125 C 0.722656 -0.671875 0.734375 -0.628906 0.734375 -0.578125 C 0.742188 -0.535156 0.75 -0.488281 0.75 -0.4375 L 0.75 0 L 0.609375 0 L 0.609375 -0.078125 C 0.578125 -0.046875 0.535156 -0.0195312 0.484375 0 C 0.441406 0.0078125 0.394531 0.015625 0.34375 0.015625 C 0.300781 0.015625 0.257812 0.0078125 0.21875 0 C 0.1875 -0.0195312 0.15625 -0.0390625 0.125 -0.0625 C 0.101562 -0.09375 0.0859375 -0.125 0.078125 -0.15625 C 0.0664062 -0.1875 0.0625 -0.21875 0.0625 -0.25 C 0.0625 -0.289062 0.0664062 -0.328125 0.078125 -0.359375 C 0.0976562 -0.390625 0.117188 -0.421875 0.140625 -0.453125 C 0.171875 -0.484375 0.203125 -0.503906 0.234375 -0.515625 C 0.273438 -0.535156 0.320312 -0.546875 0.375 -0.546875 C 0.414062 -0.546875 0.457031 -0.535156 0.5 -0.515625 C 0.550781 -0.492188 0.585938 -0.46875 0.609375 -0.4375 L 0.609375 -0.5 C 0.609375 -0.59375 0.59375 -0.660156 0.5625 -0.703125 C 0.539062 -0.742188 0.5 -0.765625 0.4375 -0.765625 C 0.40625 -0.765625 0.375 -0.757812 0.34375 -0.75 C 0.320312 -0.75 0.300781 -0.738281 0.28125 -0.71875 C 0.269531 -0.707031 0.253906 -0.691406 0.234375 -0.671875 C 0.222656 -0.648438 0.207031 -0.628906 0.1875 -0.609375 L 0.109375 -0.6875 C 0.128906 -0.707031 0.144531 -0.722656 0.15625 -0.734375 C 0.175781 -0.753906 0.195312 -0.769531 0.21875 -0.78125 C 0.238281 -0.800781 0.265625 -0.8125 0.296875 -0.8125 C 0.335938 -0.820312 0.378906 -0.828125 0.421875 -0.828125 Z M 0.609375 -0.328125 C 0.609375 -0.335938 0.601562 -0.347656 0.59375 -0.359375 C 0.582031 -0.378906 0.566406 -0.394531 0.546875 -0.40625 C 0.535156 -0.425781 0.515625 -0.441406 0.484375 -0.453125 C 0.460938 -0.460938 0.4375 -0.46875 0.40625 -0.46875 C 0.375 -0.46875 0.34375 -0.460938 0.3125 -0.453125 C 0.289062 -0.441406 0.269531 -0.425781 0.25 -0.40625 C 0.238281 -0.382812 0.226562 -0.359375 0.21875 -0.328125 C 0.207031 -0.304688 0.203125 -0.28125 0.203125 -0.25 C 0.203125 -0.21875 0.207031 -0.1875 0.21875 -0.15625 C 0.226562 -0.132812 0.242188 -0.113281 0.265625 -0.09375 C 0.285156 -0.0820312 0.304688 -0.0703125 0.328125 -0.0625 C 0.359375 -0.0507812 0.382812 -0.046875 0.40625 -0.046875 C 0.425781 -0.046875 0.445312 -0.046875 0.46875 -0.046875 C 0.488281 -0.0546875 0.507812 -0.0664062 0.53125 -0.078125 C 0.550781 -0.0976562 0.566406 -0.117188 0.578125 -0.140625 C 0.585938 -0.160156 0.597656 -0.179688 0.609375 -0.203125 Z M 0.609375 -0.328125 "/></g></g></g><g fill="#051d40" fill-opacity="1"><g transform="translate(19.855987, 374.55296)"><g><path d="M 0.265625 0 L 0.265625 -0.46875 C 0.265625 -0.488281 0.265625 -0.515625 0.265625 -0.546875 C 0.273438 -0.578125 0.285156 -0.609375 0.296875 -0.640625 C 0.304688 -0.671875 0.328125 -0.695312 0.359375 -0.71875 C 0.390625 -0.738281 0.429688 -0.75 0.484375 -0.75 C 0.515625 -0.75 0.539062 -0.738281 0.5625 -0.71875 C 0.582031 -0.707031 0.597656 -0.6875 0.609375 -0.65625 C 0.617188 -0.632812 0.625 -0.609375 0.625 -0.578125 C 0.625 -0.554688 0.625 -0.535156 0.625 -0.515625 L 0.625 0 L 0.765625 0 L 0.765625 -0.46875 C 0.765625 -0.488281 0.765625 -0.515625 0.765625 -0.546875 C 0.773438 -0.578125 0.785156 -0.609375 0.796875 -0.640625 C 0.816406 -0.671875 0.835938 -0.695312 0.859375 -0.71875 C 0.890625 -0.738281 0.925781 -0.75 0.96875 -0.75 C 1 -0.75 1.023438 -0.742188 1.046875 -0.734375 C 1.066406 -0.722656 1.082031 -0.707031 1.09375 -0.6875 C 1.101562 -0.664062 1.109375 -0.640625 1.109375 -0.609375 C 1.117188 -0.585938 1.125 -0.554688 1.125 -0.515625 L 1.125 0 L 1.265625 0 L 1.265625 -0.5625 C 1.265625 -0.59375 1.257812 -0.625 1.25 -0.65625 C 1.25 -0.6875 1.238281 -0.710938 1.21875 -0.734375 C 1.207031 -0.765625 1.179688 -0.785156 1.140625 -0.796875 C 1.109375 -0.816406 1.066406 -0.828125 1.015625 -0.828125 C 0.992188 -0.828125 0.972656 -0.828125 0.953125 -0.828125 C 0.929688 -0.828125 0.90625 -0.816406 0.875 -0.796875 C 0.851562 -0.785156 0.832031 -0.769531 0.8125 -0.75 C 0.789062 -0.726562 0.769531 -0.703125 0.75 -0.671875 C 0.738281 -0.691406 0.726562 -0.707031 0.71875 -0.71875 C 0.707031 -0.738281 0.691406 -0.753906 0.671875 -0.765625 C 0.648438 -0.785156 0.625 -0.800781 0.59375 -0.8125 C 0.570312 -0.820312 0.546875 -0.828125 0.515625 -0.828125 C 0.492188 -0.828125 0.472656 -0.820312 0.453125 -0.8125 C 0.429688 -0.8125 0.410156 -0.804688 0.390625 -0.796875 C 0.367188 -0.785156 0.347656 -0.769531 0.328125 -0.75 C 0.304688 -0.738281 0.289062 -0.71875 0.28125 -0.6875 L 0.265625 -0.6875 L 0.265625 -0.8125 L 0.125 -0.8125 L 0.125 0 Z M 0.265625 0 "/></g></g></g><g fill="#051d40" fill-opacity="1"><g transform="translate(21.252299, 374.55296)"><g><path d="M 0.1875 -0.8125 L 0.1875 0 L 0.3125 0 L 0.3125 -0.8125 Z M 0.15625 -1.0625 C 0.15625 -1.039062 0.164062 -1.019531 0.1875 -1 C 0.207031 -0.988281 0.226562 -0.984375 0.25 -0.984375 C 0.269531 -0.984375 0.289062 -0.988281 0.3125 -1 C 0.332031 -1.019531 0.34375 -1.039062 0.34375 -1.0625 C 0.34375 -1.09375 0.332031 -1.113281 0.3125 -1.125 C 0.289062 -1.144531 0.269531 -1.15625 0.25 -1.15625 C 0.226562 -1.15625 0.207031 -1.144531 0.1875 -1.125 C 0.164062 -1.113281 0.15625 -1.09375 0.15625 -1.0625 Z M 0.15625 -1.0625 "/></g></g></g><g fill="#051d40" fill-opacity="1"><g transform="translate(21.752955, 374.55296)"><g><path d="M 0.296875 -1.140625 L 0.15625 -1.140625 L 0.15625 0 L 0.296875 0 Z M 0.296875 -1.140625 "/></g></g></g><g fill="#051d40" fill-opacity="1"><g transform="translate(22.216226, 374.55296)"><g><path d="M 0.4375 -0.1875 L 0.171875 -0.8125 L 0.015625 -0.8125 L 0.375 -0.015625 L 0.296875 0.203125 C 0.285156 0.222656 0.269531 0.238281 0.25 0.25 C 0.238281 0.269531 0.222656 0.28125 0.203125 0.28125 C 0.179688 0.28125 0.160156 0.273438 0.140625 0.265625 C 0.128906 0.253906 0.117188 0.238281 0.109375 0.21875 L 0.03125 0.359375 C 0.0507812 0.367188 0.0703125 0.378906 0.09375 0.390625 C 0.125 0.398438 0.148438 0.40625 0.171875 0.40625 C 0.203125 0.40625 0.226562 0.394531 0.25 0.375 C 0.269531 0.363281 0.289062 0.34375 0.3125 0.3125 C 0.332031 0.289062 0.347656 0.265625 0.359375 0.234375 C 0.367188 0.210938 0.378906 0.1875 0.390625 0.15625 L 0.78125 -0.8125 L 0.703125 -0.8125 L 0.453125 -0.1875 Z M 0.4375 -0.1875 "/></g></g></g><g fill="#051d40" fill-opacity="1"><g transform="translate(23.035481, 374.55296)"><g/></g></g><g fill="#051d40" fill-opacity="1"><g transform="translate(23.604408, 374.55296)"><g><path d="M 0.078125 -0.5625 C 0.078125 -0.507812 0.0859375 -0.445312 0.109375 -0.375 C 0.140625 -0.300781 0.175781 -0.234375 0.21875 -0.171875 C 0.269531 -0.117188 0.332031 -0.0703125 0.40625 -0.03125 C 0.488281 0 0.582031 0.015625 0.6875 0.015625 C 0.757812 0.015625 0.828125 0.0078125 0.890625 0 C 0.953125 -0.0195312 1.003906 -0.046875 1.046875 -0.078125 C 1.097656 -0.109375 1.140625 -0.144531 1.171875 -0.1875 C 1.203125 -0.226562 1.226562 -0.269531 1.25 -0.3125 C 1.28125 -0.351562 1.300781 -0.394531 1.3125 -0.4375 C 1.320312 -0.488281 1.328125 -0.53125 1.328125 -0.5625 C 1.328125 -0.625 1.3125 -0.6875 1.28125 -0.75 C 1.257812 -0.820312 1.222656 -0.890625 1.171875 -0.953125 C 1.117188 -1.015625 1.050781 -1.0625 0.96875 -1.09375 C 0.894531 -1.132812 0.800781 -1.15625 0.6875 -1.15625 C 0.582031 -1.15625 0.488281 -1.132812 0.40625 -1.09375 C 0.332031 -1.0625 0.269531 -1.015625 0.21875 -0.953125 C 0.175781 -0.898438 0.140625 -0.835938 0.109375 -0.765625 C 0.0859375 -0.691406 0.078125 -0.625 0.078125 -0.5625 Z M 0.234375 -0.5625 C 0.234375 -0.644531 0.242188 -0.71875 0.265625 -0.78125 C 0.296875 -0.84375 0.332031 -0.894531 0.375 -0.9375 C 0.414062 -0.988281 0.460938 -1.023438 0.515625 -1.046875 C 0.566406 -1.066406 0.628906 -1.078125 0.703125 -1.078125 C 0.765625 -1.078125 0.820312 -1.066406 0.875 -1.046875 C 0.9375 -1.023438 0.988281 -0.988281 1.03125 -0.9375 C 1.070312 -0.894531 1.101562 -0.84375 1.125 -0.78125 C 1.15625 -0.71875 1.171875 -0.644531 1.171875 -0.5625 C 1.171875 -0.488281 1.15625 -0.421875 1.125 -0.359375 C 1.101562 -0.296875 1.070312 -0.238281 1.03125 -0.1875 C 0.988281 -0.144531 0.9375 -0.109375 0.875 -0.078125 C 0.820312 -0.0546875 0.765625 -0.046875 0.703125 -0.046875 C 0.628906 -0.046875 0.566406 -0.0546875 0.515625 -0.078125 C 0.460938 -0.109375 0.414062 -0.144531 0.375 -0.1875 C 0.332031 -0.238281 0.296875 -0.296875 0.265625 -0.359375 C 0.242188 -0.421875 0.234375 -0.488281 0.234375 -0.5625 Z M 0.234375 -0.5625 "/></g></g></g><g fill="#051d40" fill-opacity="1"><g transform="translate(25.010472, 374.55296)"><g><path d="M 0.125 0.40625 L 0.265625 0.40625 L 0.265625 -0.140625 L 0.28125 -0.140625 C 0.289062 -0.109375 0.300781 -0.0820312 0.3125 -0.0625 C 0.332031 -0.0390625 0.351562 -0.0234375 0.375 -0.015625 C 0.394531 -0.00390625 0.414062 0 0.4375 0 C 0.46875 0.0078125 0.5 0.015625 0.53125 0.015625 C 0.582031 0.015625 0.628906 0.00390625 0.671875 -0.015625 C 0.722656 -0.0351562 0.765625 -0.0625 0.796875 -0.09375 C 0.828125 -0.132812 0.851562 -0.179688 0.875 -0.234375 C 0.894531 -0.285156 0.90625 -0.34375 0.90625 -0.40625 C 0.90625 -0.46875 0.894531 -0.523438 0.875 -0.578125 C 0.851562 -0.628906 0.828125 -0.671875 0.796875 -0.703125 C 0.765625 -0.742188 0.722656 -0.773438 0.671875 -0.796875 C 0.628906 -0.816406 0.582031 -0.828125 0.53125 -0.828125 C 0.394531 -0.828125 0.3125 -0.78125 0.28125 -0.6875 L 0.265625 -0.6875 L 0.265625 -0.8125 L 0.125 -0.8125 Z M 0.265625 -0.484375 C 0.265625 -0.523438 0.269531 -0.5625 0.28125 -0.59375 C 0.289062 -0.625 0.304688 -0.648438 0.328125 -0.671875 C 0.347656 -0.691406 0.375 -0.707031 0.40625 -0.71875 C 0.4375 -0.738281 0.46875 -0.75 0.5 -0.75 C 0.53125 -0.75 0.5625 -0.738281 0.59375 -0.71875 C 0.625 -0.707031 0.648438 -0.6875 0.671875 -0.65625 C 0.691406 -0.632812 0.707031 -0.601562 0.71875 -0.5625 C 0.738281 -0.519531 0.75 -0.46875 0.75 -0.40625 C 0.75 -0.34375 0.738281 -0.289062 0.71875 -0.25 C 0.707031 -0.207031 0.691406 -0.171875 0.671875 -0.140625 C 0.648438 -0.117188 0.625 -0.0976562 0.59375 -0.078125 C 0.5625 -0.0664062 0.53125 -0.0625 0.5 -0.0625 C 0.46875 -0.0625 0.4375 -0.0664062 0.40625 -0.078125 C 0.382812 -0.0976562 0.363281 -0.117188 0.34375 -0.140625 C 0.320312 -0.160156 0.300781 -0.1875 0.28125 -0.21875 C 0.269531 -0.257812 0.265625 -0.300781 0.265625 -0.34375 Z M 0.265625 -0.484375 "/></g></g></g><g fill="#051d40" fill-opacity="1"><g transform="translate(25.992278, 374.55296)"><g><path d="M 0.125 -1.140625 L 0.125 0 L 0.265625 0 L 0.265625 -0.46875 C 0.265625 -0.488281 0.265625 -0.515625 0.265625 -0.546875 C 0.273438 -0.578125 0.285156 -0.609375 0.296875 -0.640625 C 0.316406 -0.671875 0.335938 -0.695312 0.359375 -0.71875 C 0.390625 -0.738281 0.429688 -0.75 0.484375 -0.75 C 0.523438 -0.75 0.554688 -0.738281 0.578125 -0.71875 C 0.597656 -0.707031 0.613281 -0.691406 0.625 -0.671875 C 0.632812 -0.648438 0.640625 -0.625 0.640625 -0.59375 C 0.648438 -0.5625 0.65625 -0.53125 0.65625 -0.5 L 0.65625 0 L 0.796875 0 L 0.796875 -0.53125 C 0.796875 -0.59375 0.785156 -0.644531 0.765625 -0.6875 C 0.753906 -0.726562 0.734375 -0.757812 0.703125 -0.78125 C 0.679688 -0.800781 0.65625 -0.8125 0.625 -0.8125 C 0.59375 -0.820312 0.5625 -0.828125 0.53125 -0.828125 C 0.488281 -0.828125 0.445312 -0.816406 0.40625 -0.796875 C 0.363281 -0.785156 0.328125 -0.757812 0.296875 -0.71875 L 0.28125 -0.703125 L 0.265625 -0.703125 L 0.265625 -1.140625 Z M 0.125 -1.140625 "/></g></g></g><g fill="#051d40" fill-opacity="1"><g transform="translate(26.917192, 374.55296)"><g><path d="M 0.046875 -0.75 L 0.046875 -0.8125 L 0.1875 -0.8125 L 0.1875 -1.0625 L 0.328125 -1.0625 L 0.328125 -0.8125 L 0.53125 -0.8125 L 0.53125 -0.75 L 0.328125 -0.75 L 0.328125 -0.203125 C 0.328125 -0.191406 0.328125 -0.175781 0.328125 -0.15625 C 0.328125 -0.144531 0.328125 -0.128906 0.328125 -0.109375 C 0.335938 -0.0976562 0.347656 -0.0859375 0.359375 -0.078125 C 0.367188 -0.0664062 0.382812 -0.0625 0.40625 -0.0625 C 0.4375 -0.0625 0.457031 -0.0703125 0.46875 -0.09375 C 0.488281 -0.113281 0.503906 -0.132812 0.515625 -0.15625 L 0.59375 -0.078125 C 0.539062 -0.0234375 0.484375 0 0.421875 0 C 0.390625 0 0.359375 -0.00390625 0.328125 -0.015625 C 0.304688 -0.0234375 0.285156 -0.0390625 0.265625 -0.0625 C 0.242188 -0.0820312 0.222656 -0.109375 0.203125 -0.140625 C 0.191406 -0.171875 0.1875 -0.207031 0.1875 -0.25 L 0.1875 -0.75 Z M 0.046875 -0.75 "/></g></g></g><g fill="#051d40" fill-opacity="1"><g transform="translate(27.526758, 374.55296)"><g><path d="M 0.125 -1.140625 L 0.125 0 L 0.265625 0 L 0.265625 -0.46875 C 0.265625 -0.488281 0.265625 -0.515625 0.265625 -0.546875 C 0.273438 -0.578125 0.285156 -0.609375 0.296875 -0.640625 C 0.316406 -0.671875 0.335938 -0.695312 0.359375 -0.71875 C 0.390625 -0.738281 0.429688 -0.75 0.484375 -0.75 C 0.523438 -0.75 0.554688 -0.738281 0.578125 -0.71875 C 0.597656 -0.707031 0.613281 -0.691406 0.625 -0.671875 C 0.632812 -0.648438 0.640625 -0.625 0.640625 -0.59375 C 0.648438 -0.5625 0.65625 -0.53125 0.65625 -0.5 L 0.65625 0 L 0.796875 0 L 0.796875 -0.53125 C 0.796875 -0.59375 0.785156 -0.644531 0.765625 -0.6875 C 0.753906 -0.726562 0.734375 -0.757812 0.703125 -0.78125 C 0.679688 -0.800781 0.65625 -0.8125 0.625 -0.8125 C 0.59375 -0.820312 0.5625 -0.828125 0.53125 -0.828125 C 0.488281 -0.828125 0.445312 -0.816406 0.40625 -0.796875 C 0.363281 -0.785156 0.328125 -0.757812 0.296875 -0.71875 L 0.28125 -0.703125 L 0.265625 -0.703125 L 0.265625 -1.140625 Z M 0.125 -1.140625 "/></g></g></g><g fill="#051d40" fill-opacity="1"><g transform="translate(28.451672, 374.55296)"><g><path d="M 0.421875 -0.828125 C 0.503906 -0.828125 0.566406 -0.816406 0.609375 -0.796875 C 0.648438 -0.773438 0.679688 -0.742188 0.703125 -0.703125 C 0.722656 -0.671875 0.734375 -0.628906 0.734375 -0.578125 C 0.742188 -0.535156 0.75 -0.488281 0.75 -0.4375 L 0.75 0 L 0.609375 0 L 0.609375 -0.078125 C 0.578125 -0.046875 0.535156 -0.0195312 0.484375 0 C 0.441406 0.0078125 0.394531 0.015625 0.34375 0.015625 C 0.300781 0.015625 0.257812 0.0078125 0.21875 0 C 0.1875 -0.0195312 0.15625 -0.0390625 0.125 -0.0625 C 0.101562 -0.09375 0.0859375 -0.125 0.078125 -0.15625 C 0.0664062 -0.1875 0.0625 -0.21875 0.0625 -0.25 C 0.0625 -0.289062 0.0664062 -0.328125 0.078125 -0.359375 C 0.0976562 -0.390625 0.117188 -0.421875 0.140625 -0.453125 C 0.171875 -0.484375 0.203125 -0.503906 0.234375 -0.515625 C 0.273438 -0.535156 0.320312 -0.546875 0.375 -0.546875 C 0.414062 -0.546875 0.457031 -0.535156 0.5 -0.515625 C 0.550781 -0.492188 0.585938 -0.46875 0.609375 -0.4375 L 0.609375 -0.5 C 0.609375 -0.59375 0.59375 -0.660156 0.5625 -0.703125 C 0.539062 -0.742188 0.5 -0.765625 0.4375 -0.765625 C 0.40625 -0.765625 0.375 -0.757812 0.34375 -0.75 C 0.320312 -0.75 0.300781 -0.738281 0.28125 -0.71875 C 0.269531 -0.707031 0.253906 -0.691406 0.234375 -0.671875 C 0.222656 -0.648438 0.207031 -0.628906 0.1875 -0.609375 L 0.109375 -0.6875 C 0.128906 -0.707031 0.144531 -0.722656 0.15625 -0.734375 C 0.175781 -0.753906 0.195312 -0.769531 0.21875 -0.78125 C 0.238281 -0.800781 0.265625 -0.8125 0.296875 -0.8125 C 0.335938 -0.820312 0.378906 -0.828125 0.421875 -0.828125 Z M 0.609375 -0.328125 C 0.609375 -0.335938 0.601562 -0.347656 0.59375 -0.359375 C 0.582031 -0.378906 0.566406 -0.394531 0.546875 -0.40625 C 0.535156 -0.425781 0.515625 -0.441406 0.484375 -0.453125 C 0.460938 -0.460938 0.4375 -0.46875 0.40625 -0.46875 C 0.375 -0.46875 0.34375 -0.460938 0.3125 -0.453125 C 0.289062 -0.441406 0.269531 -0.425781 0.25 -0.40625 C 0.238281 -0.382812 0.226562 -0.359375 0.21875 -0.328125 C 0.207031 -0.304688 0.203125 -0.28125 0.203125 -0.25 C 0.203125 -0.21875 0.207031 -0.1875 0.21875 -0.15625 C 0.226562 -0.132812 0.242188 -0.113281 0.265625 -0.09375 C 0.285156 -0.0820312 0.304688 -0.0703125 0.328125 -0.0625 C 0.359375 -0.0507812 0.382812 -0.046875 0.40625 -0.046875 C 0.425781 -0.046875 0.445312 -0.046875 0.46875 -0.046875 C 0.488281 -0.0546875 0.507812 -0.0664062 0.53125 -0.078125 C 0.550781 -0.0976562 0.566406 -0.117188 0.578125 -0.140625 C 0.585938 -0.160156 0.597656 -0.179688 0.609375 -0.203125 Z M 0.609375 -0.328125 "/></g></g></g><g fill="#051d40" fill-opacity="1"><g transform="translate(29.329446, 374.55296)"><g><path d="M 0.296875 -1.140625 L 0.15625 -1.140625 L 0.15625 0 L 0.296875 0 Z M 0.296875 -1.140625 "/></g></g></g><g fill="#051d40" fill-opacity="1"><g transform="translate(29.792716, 374.55296)"><g><path d="M 0.265625 0 L 0.265625 -0.46875 C 0.265625 -0.488281 0.265625 -0.515625 0.265625 -0.546875 C 0.273438 -0.578125 0.285156 -0.609375 0.296875 -0.640625 C 0.304688 -0.671875 0.328125 -0.695312 0.359375 -0.71875 C 0.390625 -0.738281 0.429688 -0.75 0.484375 -0.75 C 0.515625 -0.75 0.539062 -0.738281 0.5625 -0.71875 C 0.582031 -0.707031 0.597656 -0.6875 0.609375 -0.65625 C 0.617188 -0.632812 0.625 -0.609375 0.625 -0.578125 C 0.625 -0.554688 0.625 -0.535156 0.625 -0.515625 L 0.625 0 L 0.765625 0 L 0.765625 -0.46875 C 0.765625 -0.488281 0.765625 -0.515625 0.765625 -0.546875 C 0.773438 -0.578125 0.785156 -0.609375 0.796875 -0.640625 C 0.816406 -0.671875 0.835938 -0.695312 0.859375 -0.71875 C 0.890625 -0.738281 0.925781 -0.75 0.96875 -0.75 C 1 -0.75 1.023438 -0.742188 1.046875 -0.734375 C 1.066406 -0.722656 1.082031 -0.707031 1.09375 -0.6875 C 1.101562 -0.664062 1.109375 -0.640625 1.109375 -0.609375 C 1.117188 -0.585938 1.125 -0.554688 1.125 -0.515625 L 1.125 0 L 1.265625 0 L 1.265625 -0.5625 C 1.265625 -0.59375 1.257812 -0.625 1.25 -0.65625 C 1.25 -0.6875 1.238281 -0.710938 1.21875 -0.734375 C 1.207031 -0.765625 1.179688 -0.785156 1.140625 -0.796875 C 1.109375 -0.816406 1.066406 -0.828125 1.015625 -0.828125 C 0.992188 -0.828125 0.972656 -0.828125 0.953125 -0.828125 C 0.929688 -0.828125 0.90625 -0.816406 0.875 -0.796875 C 0.851562 -0.785156 0.832031 -0.769531 0.8125 -0.75 C 0.789062 -0.726562 0.769531 -0.703125 0.75 -0.671875 C 0.738281 -0.691406 0.726562 -0.707031 0.71875 -0.71875 C 0.707031 -0.738281 0.691406 -0.753906 0.671875 -0.765625 C 0.648438 -0.785156 0.625 -0.800781 0.59375 -0.8125 C 0.570312 -0.820312 0.546875 -0.828125 0.515625 -0.828125 C 0.492188 -0.828125 0.472656 -0.820312 0.453125 -0.8125 C 0.429688 -0.8125 0.410156 -0.804688 0.390625 -0.796875 C 0.367188 -0.785156 0.347656 -0.769531 0.328125 -0.75 C 0.304688 -0.738281 0.289062 -0.71875 0.28125 -0.6875 L 0.265625 -0.6875 L 0.265625 -0.8125 L 0.125 -0.8125 L 0.125 0 Z M 0.265625 0 "/></g></g></g><g fill="#051d40" fill-opacity="1"><g transform="translate(31.189027, 374.55296)"><g><path d="M 0.921875 -0.40625 C 0.921875 -0.34375 0.910156 -0.285156 0.890625 -0.234375 C 0.867188 -0.191406 0.835938 -0.148438 0.796875 -0.109375 C 0.765625 -0.0664062 0.722656 -0.0351562 0.671875 -0.015625 C 0.617188 0.00390625 0.5625 0.015625 0.5 0.015625 C 0.4375 0.015625 0.378906 0.00390625 0.328125 -0.015625 C 0.273438 -0.0351562 0.226562 -0.0664062 0.1875 -0.109375 C 0.15625 -0.148438 0.128906 -0.195312 0.109375 -0.25 C 0.0859375 -0.300781 0.078125 -0.351562 0.078125 -0.40625 C 0.078125 -0.457031 0.0859375 -0.507812 0.109375 -0.5625 C 0.128906 -0.613281 0.15625 -0.660156 0.1875 -0.703125 C 0.226562 -0.742188 0.273438 -0.773438 0.328125 -0.796875 C 0.378906 -0.816406 0.4375 -0.828125 0.5 -0.828125 C 0.5625 -0.828125 0.617188 -0.816406 0.671875 -0.796875 C 0.722656 -0.773438 0.765625 -0.742188 0.796875 -0.703125 C 0.835938 -0.660156 0.867188 -0.613281 0.890625 -0.5625 C 0.910156 -0.507812 0.921875 -0.457031 0.921875 -0.40625 Z M 0.765625 -0.40625 C 0.765625 -0.476562 0.753906 -0.535156 0.734375 -0.578125 C 0.722656 -0.628906 0.703125 -0.664062 0.671875 -0.6875 C 0.648438 -0.71875 0.625 -0.738281 0.59375 -0.75 C 0.5625 -0.757812 0.53125 -0.765625 0.5 -0.765625 C 0.46875 -0.765625 0.4375 -0.757812 0.40625 -0.75 C 0.375 -0.738281 0.34375 -0.71875 0.3125 -0.6875 C 0.289062 -0.664062 0.269531 -0.628906 0.25 -0.578125 C 0.238281 -0.535156 0.234375 -0.476562 0.234375 -0.40625 C 0.234375 -0.332031 0.238281 -0.269531 0.25 -0.21875 C 0.269531 -0.175781 0.289062 -0.140625 0.3125 -0.109375 C 0.34375 -0.0859375 0.375 -0.0703125 0.40625 -0.0625 C 0.4375 -0.0507812 0.46875 -0.046875 0.5 -0.046875 C 0.53125 -0.046875 0.5625 -0.0507812 0.59375 -0.0625 C 0.625 -0.0703125 0.648438 -0.0859375 0.671875 -0.109375 C 0.703125 -0.140625 0.722656 -0.175781 0.734375 -0.21875 C 0.753906 -0.269531 0.765625 -0.332031 0.765625 -0.40625 Z M 0.765625 -0.40625 "/></g></g></g><g fill="#051d40" fill-opacity="1"><g transform="translate(32.193591, 374.55296)"><g><path d="M 0.296875 -1.140625 L 0.15625 -1.140625 L 0.15625 0 L 0.296875 0 Z M 0.296875 -1.140625 "/></g></g></g><g fill="#051d40" fill-opacity="1"><g transform="translate(32.656861, 374.55296)"><g><path d="M 0.921875 -0.40625 C 0.921875 -0.34375 0.910156 -0.285156 0.890625 -0.234375 C 0.867188 -0.191406 0.835938 -0.148438 0.796875 -0.109375 C 0.765625 -0.0664062 0.722656 -0.0351562 0.671875 -0.015625 C 0.617188 0.00390625 0.5625 0.015625 0.5 0.015625 C 0.4375 0.015625 0.378906 0.00390625 0.328125 -0.015625 C 0.273438 -0.0351562 0.226562 -0.0664062 0.1875 -0.109375 C 0.15625 -0.148438 0.128906 -0.195312 0.109375 -0.25 C 0.0859375 -0.300781 0.078125 -0.351562 0.078125 -0.40625 C 0.078125 -0.457031 0.0859375 -0.507812 0.109375 -0.5625 C 0.128906 -0.613281 0.15625 -0.660156 0.1875 -0.703125 C 0.226562 -0.742188 0.273438 -0.773438 0.328125 -0.796875 C 0.378906 -0.816406 0.4375 -0.828125 0.5 -0.828125 C 0.5625 -0.828125 0.617188 -0.816406 0.671875 -0.796875 C 0.722656 -0.773438 0.765625 -0.742188 0.796875 -0.703125 C 0.835938 -0.660156 0.867188 -0.613281 0.890625 -0.5625 C 0.910156 -0.507812 0.921875 -0.457031 0.921875 -0.40625 Z M 0.765625 -0.40625 C 0.765625 -0.476562 0.753906 -0.535156 0.734375 -0.578125 C 0.722656 -0.628906 0.703125 -0.664062 0.671875 -0.6875 C 0.648438 -0.71875 0.625 -0.738281 0.59375 -0.75 C 0.5625 -0.757812 0.53125 -0.765625 0.5 -0.765625 C 0.46875 -0.765625 0.4375 -0.757812 0.40625 -0.75 C 0.375 -0.738281 0.34375 -0.71875 0.3125 -0.6875 C 0.289062 -0.664062 0.269531 -0.628906 0.25 -0.578125 C 0.238281 -0.535156 0.234375 -0.476562 0.234375 -0.40625 C 0.234375 -0.332031 0.238281 -0.269531 0.25 -0.21875 C 0.269531 -0.175781 0.289062 -0.140625 0.3125 -0.109375 C 0.34375 -0.0859375 0.375 -0.0703125 0.40625 -0.0625 C 0.4375 -0.0507812 0.46875 -0.046875 0.5 -0.046875 C 0.53125 -0.046875 0.5625 -0.0507812 0.59375 -0.0625 C 0.625 -0.0703125 0.648438 -0.0859375 0.671875 -0.109375 C 0.703125 -0.140625 0.722656 -0.175781 0.734375 -0.21875 C 0.753906 -0.269531 0.765625 -0.332031 0.765625 -0.40625 Z M 0.765625 -0.40625 "/></g></g></g><g fill="#051d40" fill-opacity="1"><g transform="translate(33.661424, 374.55296)"><g><path d="M 0.703125 0.0625 C 0.703125 0.113281 0.695312 0.15625 0.6875 0.1875 C 0.675781 0.226562 0.660156 0.257812 0.640625 0.28125 C 0.617188 0.300781 0.59375 0.316406 0.5625 0.328125 C 0.539062 0.335938 0.507812 0.34375 0.46875 0.34375 C 0.414062 0.34375 0.367188 0.328125 0.328125 0.296875 C 0.296875 0.265625 0.265625 0.226562 0.234375 0.1875 L 0.15625 0.265625 C 0.15625 0.273438 0.164062 0.285156 0.1875 0.296875 C 0.207031 0.316406 0.226562 0.332031 0.25 0.34375 C 0.269531 0.363281 0.296875 0.378906 0.328125 0.390625 C 0.367188 0.398438 0.410156 0.40625 0.453125 0.40625 C 0.535156 0.40625 0.601562 0.390625 0.65625 0.359375 C 0.707031 0.335938 0.742188 0.304688 0.765625 0.265625 C 0.796875 0.234375 0.816406 0.191406 0.828125 0.140625 C 0.835938 0.0859375 0.84375 0.0351562 0.84375 -0.015625 L 0.84375 -0.8125 L 0.703125 -0.8125 L 0.703125 -0.6875 C 0.691406 -0.726562 0.664062 -0.757812 0.625 -0.78125 C 0.582031 -0.8125 0.523438 -0.828125 0.453125 -0.828125 C 0.398438 -0.828125 0.347656 -0.816406 0.296875 -0.796875 C 0.253906 -0.773438 0.21875 -0.742188 0.1875 -0.703125 C 0.15625 -0.671875 0.128906 -0.628906 0.109375 -0.578125 C 0.0859375 -0.523438 0.078125 -0.46875 0.078125 -0.40625 C 0.078125 -0.34375 0.0859375 -0.285156 0.109375 -0.234375 C 0.128906 -0.179688 0.15625 -0.132812 0.1875 -0.09375 C 0.21875 -0.0625 0.253906 -0.0351562 0.296875 -0.015625 C 0.347656 0.00390625 0.398438 0.015625 0.453125 0.015625 C 0.515625 0.015625 0.566406 0.00390625 0.609375 -0.015625 C 0.648438 -0.0351562 0.679688 -0.0703125 0.703125 -0.125 Z M 0.703125 -0.34375 C 0.703125 -0.300781 0.695312 -0.257812 0.6875 -0.21875 C 0.675781 -0.1875 0.660156 -0.160156 0.640625 -0.140625 C 0.617188 -0.117188 0.59375 -0.0976562 0.5625 -0.078125 C 0.539062 -0.0664062 0.515625 -0.0625 0.484375 -0.0625 C 0.460938 -0.0625 0.4375 -0.0664062 0.40625 -0.078125 C 0.375 -0.0859375 0.34375 -0.101562 0.3125 -0.125 C 0.289062 -0.15625 0.269531 -0.191406 0.25 -0.234375 C 0.238281 -0.273438 0.234375 -0.332031 0.234375 -0.40625 C 0.234375 -0.488281 0.242188 -0.550781 0.265625 -0.59375 C 0.285156 -0.632812 0.304688 -0.664062 0.328125 -0.6875 C 0.359375 -0.71875 0.390625 -0.734375 0.421875 -0.734375 C 0.453125 -0.742188 0.472656 -0.75 0.484375 -0.75 C 0.523438 -0.75 0.554688 -0.738281 0.578125 -0.71875 C 0.609375 -0.707031 0.632812 -0.6875 0.65625 -0.65625 C 0.675781 -0.632812 0.6875 -0.601562 0.6875 -0.5625 C 0.695312 -0.53125 0.703125 -0.5 0.703125 -0.46875 Z M 0.703125 -0.34375 "/></g></g></g><g fill="#051d40" fill-opacity="1"><g transform="translate(34.63998, 374.55296)"><g><path d="M 0.1875 -0.8125 L 0.1875 0 L 0.3125 0 L 0.3125 -0.8125 Z M 0.15625 -1.0625 C 0.15625 -1.039062 0.164062 -1.019531 0.1875 -1 C 0.207031 -0.988281 0.226562 -0.984375 0.25 -0.984375 C 0.269531 -0.984375 0.289062 -0.988281 0.3125 -1 C 0.332031 -1.019531 0.34375 -1.039062 0.34375 -1.0625 C 0.34375 -1.09375 0.332031 -1.113281 0.3125 -1.125 C 0.289062 -1.144531 0.269531 -1.15625 0.25 -1.15625 C 0.226562 -1.15625 0.207031 -1.144531 0.1875 -1.125 C 0.164062 -1.113281 0.15625 -1.09375 0.15625 -1.0625 Z M 0.15625 -1.0625 "/></g></g></g><g fill="#051d40" fill-opacity="1"><g transform="translate(35.140636, 374.55296)"><g><path d="M 0.640625 -0.625 C 0.640625 -0.65625 0.632812 -0.679688 0.625 -0.703125 C 0.613281 -0.734375 0.59375 -0.753906 0.5625 -0.765625 C 0.53125 -0.785156 0.5 -0.800781 0.46875 -0.8125 C 0.4375 -0.820312 0.398438 -0.828125 0.359375 -0.828125 C 0.316406 -0.828125 0.28125 -0.820312 0.25 -0.8125 C 0.21875 -0.800781 0.1875 -0.785156 0.15625 -0.765625 C 0.132812 -0.753906 0.117188 -0.734375 0.109375 -0.703125 C 0.0976562 -0.671875 0.09375 -0.632812 0.09375 -0.59375 C 0.09375 -0.539062 0.101562 -0.5 0.125 -0.46875 C 0.144531 -0.445312 0.171875 -0.425781 0.203125 -0.40625 C 0.242188 -0.382812 0.285156 -0.367188 0.328125 -0.359375 C 0.367188 -0.347656 0.40625 -0.332031 0.4375 -0.3125 C 0.476562 -0.300781 0.507812 -0.285156 0.53125 -0.265625 C 0.550781 -0.242188 0.5625 -0.21875 0.5625 -0.1875 C 0.5625 -0.164062 0.554688 -0.144531 0.546875 -0.125 C 0.546875 -0.113281 0.539062 -0.101562 0.53125 -0.09375 C 0.519531 -0.0820312 0.503906 -0.0703125 0.484375 -0.0625 C 0.460938 -0.0507812 0.429688 -0.046875 0.390625 -0.046875 C 0.347656 -0.046875 0.3125 -0.0507812 0.28125 -0.0625 C 0.25 -0.0820312 0.222656 -0.0976562 0.203125 -0.109375 C 0.191406 -0.128906 0.179688 -0.148438 0.171875 -0.171875 C 0.160156 -0.191406 0.15625 -0.207031 0.15625 -0.21875 L 0.046875 -0.21875 C 0.046875 -0.1875 0.0507812 -0.15625 0.0625 -0.125 C 0.0820312 -0.101562 0.109375 -0.078125 0.140625 -0.046875 C 0.171875 -0.0234375 0.207031 -0.0078125 0.25 0 C 0.289062 0.0078125 0.335938 0.015625 0.390625 0.015625 C 0.492188 0.015625 0.566406 -0.00390625 0.609375 -0.046875 C 0.660156 -0.0859375 0.6875 -0.144531 0.6875 -0.21875 C 0.6875 -0.269531 0.675781 -0.3125 0.65625 -0.34375 C 0.632812 -0.375 0.601562 -0.398438 0.5625 -0.421875 C 0.519531 -0.441406 0.476562 -0.457031 0.4375 -0.46875 C 0.394531 -0.476562 0.351562 -0.488281 0.3125 -0.5 C 0.28125 -0.507812 0.25 -0.523438 0.21875 -0.546875 C 0.195312 -0.566406 0.1875 -0.59375 0.1875 -0.625 C 0.1875 -0.644531 0.191406 -0.660156 0.203125 -0.671875 C 0.210938 -0.691406 0.222656 -0.707031 0.234375 -0.71875 C 0.242188 -0.726562 0.257812 -0.738281 0.28125 -0.75 C 0.300781 -0.757812 0.328125 -0.765625 0.359375 -0.765625 C 0.390625 -0.765625 0.414062 -0.757812 0.4375 -0.75 C 0.46875 -0.738281 0.488281 -0.726562 0.5 -0.71875 C 0.519531 -0.707031 0.535156 -0.691406 0.546875 -0.671875 C 0.554688 -0.648438 0.5625 -0.632812 0.5625 -0.625 Z M 0.640625 -0.625 "/></g></g></g><g fill="#051d40" fill-opacity="1"><g transform="translate(35.92088, 374.55296)"><g><path d="M 0.046875 -0.75 L 0.046875 -0.8125 L 0.1875 -0.8125 L 0.1875 -1.0625 L 0.328125 -1.0625 L 0.328125 -0.8125 L 0.53125 -0.8125 L 0.53125 -0.75 L 0.328125 -0.75 L 0.328125 -0.203125 C 0.328125 -0.191406 0.328125 -0.175781 0.328125 -0.15625 C 0.328125 -0.144531 0.328125 -0.128906 0.328125 -0.109375 C 0.335938 -0.0976562 0.347656 -0.0859375 0.359375 -0.078125 C 0.367188 -0.0664062 0.382812 -0.0625 0.40625 -0.0625 C 0.4375 -0.0625 0.457031 -0.0703125 0.46875 -0.09375 C 0.488281 -0.113281 0.503906 -0.132812 0.515625 -0.15625 L 0.59375 -0.078125 C 0.539062 -0.0234375 0.484375 0 0.421875 0 C 0.390625 0 0.359375 -0.00390625 0.328125 -0.015625 C 0.304688 -0.0234375 0.285156 -0.0390625 0.265625 -0.0625 C 0.242188 -0.0820312 0.222656 -0.109375 0.203125 -0.140625 C 0.191406 -0.171875 0.1875 -0.207031 0.1875 -0.25 L 0.1875 -0.75 Z M 0.046875 -0.75 "/></g></g></g></svg>